# xmcd CD database file
#
# Track frame offsets:
#	150
#	23159
#	46648
#	69991
#	95796
#	115790
#	139951
#	162841
#	188392
#	211489
#
# Disc length: 2908 seconds
#
# Revision: 2
# Processed by: cddbd v1.5.2PL0 Copyright (c) Steve Scherf et al.
# Submitted via: CDex 1.70beta2
#
DISCID=800b5a0a
DTITLE=Michael Bolton - The One Thing
DYEAR=1993
DGENRE=Jazz
TTITLE0=01-Said I Loved You ... But I Lied
TTITLE1=02-I'm Not Made Of Steel
TTITLE2=03-The One Thing
TTITLE3=04-Soul Of My Soul
TTITLE4=05-Completely
TTITLE5=06-Lean On Me
TTITLE6=07-Ain't Got Nothing If You Ain't Got Love
TTITLE7=08-A Time For Letting Go
TTITLE8=09-Never Get Enough Of Your Love
TTITLE9=10-In The Arms Of Love
EXTD=YEAR: 1993
EXTT0=
EXTT1=
EXTT2=
EXTT3=
EXTT4=
EXTT5=
EXTT6=
EXTT7=
EXTT8=
EXTT9=
PLAYORDER=
